<svg xmlns="http://www.w3.org/2000/svg" xmlns:xlink="http://www.w3.org/1999/xlink" width="120" height="121.163" viewBox="0 0 120 121.163">
  <defs>
    <linearGradient id="linear-gradient" x1="0.08" y1="0.213" x2="1.007" y2="0.213" gradientUnits="objectBoundingBox">
      <stop offset="0" stop-color="#92d66e"/>
      <stop offset="0.509" stop-color="#6cb756"/>
      <stop offset="1" stop-color="#63b250"/>
    </linearGradient>
    <linearGradient id="linear-gradient-2" x1="0.002" y1="-0.129" x2="1.055" y2="-0.129" gradientUnits="objectBoundingBox">
      <stop offset="0" stop-color="#4b823c"/>
      <stop offset="1" stop-color="#63b250"/>
    </linearGradient>
    <linearGradient id="linear-gradient-3" x1="1.451" y1="2.292" x2="2.378" y2="2.292" xlink:href="#linear-gradient"/>
    <linearGradient id="linear-gradient-4" x1="4.404" y1="8.541" x2="5.457" y2="8.541" xlink:href="#linear-gradient-2"/>
  </defs>
  <g id="Image" transform="translate(-293.388 -108.94)">
    <g id="Gruppe_1" data-name="Gruppe 1" transform="translate(293.388 145.949)">
      <path id="Pfad_1" data-name="Pfad 1" d="M391.728,205.228a37.872,37.872,0,0,1-21.816,11.408,37.157,37.157,0,0,1-23.443-4.082,12.589,12.589,0,0,1-4.2-3.233,4.68,4.68,0,0,1-1.314-2.746c.15-2.081,3.865-.839,4.9-.528,8.859,2.67,18.312-3.276,20.225-4.943A1.358,1.358,0,0,0,366,198.83c-.991-.788-2.41-.531-3.582-.421a43.844,43.844,0,0,1-14.367-1.532,74.759,74.759,0,0,1-14.215-5.586,15.762,15.762,0,0,0-8.227-1.116v0c-28-1.133-28.275-44.086-28.275-44.086a62.747,62.747,0,0,0,5.024,54.254l.258.428h0c.01.017.019.036.03.053,5.663,8.861,12.576,16.457,21.7,21.679a58.491,58.491,0,0,0,77-17.313c.023-.042.049-.088.068-.124C402.569,202.871,394.611,202.128,391.728,205.228Z" transform="translate(-293.388 -146.087)" fill="url(#linear-gradient)"/>
      <path id="Pfad_2" data-name="Pfad 2" d="M349.243,211.007a39.274,39.274,0,0,0,40.7-9.714q.558-.6,1.105-1.214c1.034-1.149,2.054-2.312,3.026-3.514.438-.541.871-1.09,1.261-1.667.413-.614.669-1.28-.045-1.8a4.2,4.2,0,0,0-2.907-.6,7.156,7.156,0,0,0-3.974,2c-1.263,1.077-2.377,2.31-3.544,3.485a36.1,36.1,0,0,1-10.8,7.067l.613-.595,4.255-4.12a67.969,67.969,0,0,0,5.3-5.429c.374-.453,3.283-3.7,2.675-4.277a3.62,3.62,0,0,0-2.384-1.224c-1.677-.079-3.089,1.237-4.072,2.446q-.657.81-1.346,1.595-1.411,1.612-2.93,3.124c-5.945,5.931-13.194,11.076-21.243,13.664A12.948,12.948,0,0,1,349.243,211.007Z" transform="translate(-292.558 -143.893)" fill="url(#linear-gradient-2)"/>
    </g>
    <g id="Gruppe_2" data-name="Gruppe 2" transform="translate(305.247 108.94)">
      <path id="Pfad_3" data-name="Pfad 3" d="M314.476,133.953a37.866,37.866,0,0,1,21.816-11.408,37.173,37.173,0,0,1,23.442,4.082,12.592,12.592,0,0,1,4.2,3.233,4.678,4.678,0,0,1,1.314,2.746c-.15,2.081-3.865.839-4.9.528-8.859-2.67-18.31,3.276-20.225,4.943a1.359,1.359,0,0,0,.078,2.275c.991.787,2.411.53,3.582.421a43.812,43.812,0,0,1,14.367,1.531,74.7,74.7,0,0,1,14.216,5.587,15.768,15.768,0,0,0,8.226,1.116h0c28,1.133,28.275,44.086,28.275,44.086a62.743,62.743,0,0,0-5.024-54.254l-.258-.428h0c-.01-.017-.019-.036-.029-.053-5.664-8.86-12.576-16.457-21.7-21.679a58.492,58.492,0,0,0-77,17.313l-.068.124C303.634,136.311,311.594,137.053,314.476,133.953Z" transform="translate(-304.675 -108.94)" fill="url(#linear-gradient-3)"/>
      <path id="Pfad_4" data-name="Pfad 4" d="M355.893,125.259a39.276,39.276,0,0,0-40.706,9.714c-.372.4-.739.807-1.1,1.214-1.034,1.149-2.055,2.313-3.027,3.514-.437.541-.871,1.09-1.26,1.667-.413.614-.669,1.28.044,1.8a4.193,4.193,0,0,0,2.908.6,7.16,7.16,0,0,0,3.974-2c1.262-1.077,2.376-2.31,3.544-3.485a36.07,36.07,0,0,1,10.8-7.066l-.614.594-4.255,4.12a67.955,67.955,0,0,0-5.3,5.429c-.374.453-3.283,3.7-2.675,4.277a3.618,3.618,0,0,0,2.384,1.224c1.676.079,3.089-1.237,4.071-2.446q.659-.81,1.346-1.595c.94-1.075,1.921-2.116,2.93-3.124,5.945-5.931,13.2-11.076,21.244-13.664A12.946,12.946,0,0,1,355.893,125.259Z" transform="translate(-304.436 -108.219)" fill="url(#linear-gradient-4)"/>
    </g>
  </g>
</svg>
